<?xml version="1.0" encoding="UTF-8" standalone="no"?>
<svg
   xmlns:dc="http://purl.org/dc/elements/1.1/"
   xmlns:cc="http://creativecommons.org/ns#"
   xmlns:rdf="http://www.w3.org/1999/02/22-rdf-syntax-ns#"
   xmlns:svg="http://www.w3.org/2000/svg"
   xmlns="http://www.w3.org/2000/svg"
   xmlns:sodipodi="http://sodipodi.sourceforge.net/DTD/sodipodi-0.dtd"
   xmlns:inkscape="http://www.inkscape.org/namespaces/inkscape"
   id="svg8"
   version="1.1"
   viewBox="0 0 28.575 28.575001"
   height="108"
   width="108"
   sodipodi:docname="icone2.svg"
   inkscape:version="0.92.3 (2405546, 2018-03-11)">
  <sodipodi:namedview
     pagecolor="#ffffff"
     bordercolor="#666666"
     borderopacity="1"
     objecttolerance="10"
     gridtolerance="10"
     guidetolerance="10"
     inkscape:pageopacity="0"
     inkscape:pageshadow="2"
     inkscape:window-width="1366"
     inkscape:window-height="711"
     id="namedview4684"
     showgrid="false"
     units="px"
     inkscape:zoom="2.3786088"
     inkscape:cx="162.47683"
     inkscape:cy="68.354837"
     inkscape:window-x="1"
     inkscape:window-y="1080"
     inkscape:window-maximized="1"
     inkscape:current-layer="svg8"
     inkscape:document-units="px" />
  <defs
     id="defs2" />
  <metadata
     id="metadata5">
    <rdf:RDF>
      <cc:Work
         rdf:about="">
        <dc:format>image/svg+xml</dc:format>
        <dc:type
           rdf:resource="http://purl.org/dc/dcmitype/StillImage" />
        <dc:title />
      </cc:Work>
    </rdf:RDF>
  </metadata>
  <g
     id="layer1"
     transform="matrix(0.27058435,0,0,0.20583607,6.0403613,6.5446321)">
    <g
       id="text3727"
       style="font-style:normal;font-weight:normal;font-size:9.49979782px;line-height:1.25;font-family:sans-serif;letter-spacing:0px;word-spacing:0px;fill:#000000;fill-opacity:1;stroke:none;stroke-width:0.23749493"
       transform="scale(0.93175914,1.0732387)"
       aria-label=" 一二三 四五六 七八九">
      <path
         id="path12"
         style="stroke-width:0.23749493"
         d="m 16.967706,5.9066349 q 0.364793,-0.2051956 0.592788,-0.2051956 0.227995,-0.022799 0.980379,0.136797 0.752384,0.1367971 1.003178,0.2735942 0.250795,0.1139976 0.615587,0.4787898 0.250795,0.2507946 0.319193,0.4331907 0.0912,0.1595966 0.113998,0.6611859 0.0912,0.8663815 -0.227995,1.2083742 Q 20.06844,9.2353638 19.316056,9.1213662 18.746068,9.0529672 18.67767,9.0073686 18.60927,8.9389706 17.286899,8.6653759 15.964528,8.3917818 14.254564,8.3917818 q -1.801161,0 -4.6738999,0.1595966 Q 6.730725,8.710975 6.2063362,8.847772 3.9947835,9.4633589 3.8807859,9.645755 3.8351869,9.736953 3.4247957,9.736953 3.0144044,9.736953 2.8092088,9.6229555 2.3988176,9.3949604 1.8060303,8.847772 1.2360424,8.3005837 1.2360424,8.1637867 1.1904434,8.0725886 1.441238,7.7989945 1.7148322,7.5254003 1.8744288,7.4570018 2.9688054,7.1378086 3.8807859,7.0010115 4.7927664,6.8414149 7.0271187,6.6362193 8.8510797,6.4766227 9.6262632,6.3854247 10.469845,6.2942266 12.430603,6.2030286 14.414161,6.089031 15.39454,6.089031 q 1.185575,0 1.573166,-0.1823961 z"
         inkscape:connector-curvature="0" />
      <path
         id="path14"
         style="font-style:normal;font-variant:normal;font-weight:normal;font-stretch:normal;font-size:22.79951286px;font-family:'Ma Shan Zheng';-inkscape-font-specification:'Ma Shan Zheng, Normal';font-variant-ligatures:normal;font-variant-caps:normal;font-variant-numeric:normal;font-feature-settings:normal;text-align:start;writing-mode:lr-tb;text-anchor:start;stroke-width:0.23749493"
         d="m 39.767219,8.8705716 q 1.573167,-0.068399 1.778362,-0.091198 0.250795,0 0.661186,0.1367971 0.410391,0.1367971 0.47879,0.2735941 0.136797,0.1595966 0.410391,0.2507947 0.569988,0.1823961 0.683985,1.1399755 0.0456,0.319193 0,0.433191 -0.0456,0.113997 -0.227995,0.296393 -0.820782,0.820783 -1.755562,0.182397 -0.364792,-0.227996 -0.980379,-0.296394 -0.729585,-0.0912 -2.257152,-0.0684 -1.504768,0.0228 -2.371149,0.113998 -4.970294,0.615587 -6.908253,1.048777 l -1.117176,0.250795 q -0.706785,0.159597 -1.367971,0.387592 -0.638386,0.205195 -0.752384,0.364792 -0.387591,0.410391 -1.322371,-0.0456 -0.93478,-0.47879 -1.071577,-1.139976 -0.0456,-0.319193 0.136797,-0.478789 0.182396,-0.159597 0.775183,-0.341993 0.547188,-0.136797 1.208374,-0.364792 0.661186,-0.250795 1.208374,-0.387592 l 1.345172,-0.387592 Q 29.119847,9.9421487 29.89503,9.8965496 30.670214,9.8281511 31.240201,9.736953 31.832989,9.6229555 32.836167,9.5317574 33.862145,9.4405594 34.660128,9.3265618 36.301693,9.0073686 39.767219,8.8705716 Z M 34.56893,2.0307177 q 0.227995,-0.1367971 0.866382,0.068399 0.661186,0.1823961 0.980379,0.4559903 0.273594,0.2735942 0.319193,0.6611859 0.0684,0.3647922 -0.136797,0.6383863 -0.182396,0.2279952 -0.47879,0.3647922 -0.273594,0.1367971 -0.524389,0.045599 -0.205195,-0.045599 -0.889181,0.068399 -0.661186,0.1139976 -0.866381,0.1367971 -0.205196,0.022799 -0.296394,0.091198 -0.0684,0.045599 -0.250794,0.045599 -0.227996,0 -1.846761,0.6383863 L 31.035006,5.3594466 29.963429,4.8350578 q -1.094377,-0.5015893 -1.162776,-0.7523839 -0.113997,-0.2735942 -0.0912,-0.3875918 0.0456,-0.1139975 0.319194,-0.2507946 0.341992,-0.1595966 1.459168,-0.4331907 1.139976,-0.2963937 2.029157,-0.4559903 0.95758,-0.1595966 1.094377,-0.2963937 0.159596,-0.136797 0.478789,-0.136797 0.341993,0 0.47879,-0.091198 z"
         inkscape:connector-curvature="0" />
      <path
         id="path16"
         style="font-style:normal;font-variant:normal;font-weight:normal;font-stretch:normal;font-size:22.79951286px;font-family:'Ma Shan Zheng';-inkscape-font-specification:'Ma Shan Zheng, Normal';font-variant-ligatures:normal;font-variant-caps:normal;font-variant-numeric:normal;font-feature-settings:normal;text-align:start;writing-mode:lr-tb;text-anchor:start;stroke-width:0.23749493"
         d="m 63.319116,10.876929 q 0.159597,-0.136797 0.296394,-0.136797 0.159596,0 0.478789,0.205195 0.410392,0.182396 0.775184,0.227995 0.843582,0.136797 1.185575,0.433191 0.341992,0.296394 0.341992,0.866382 0,0.319193 -0.273594,0.752384 -0.250795,0.410391 -0.501589,0.478789 -0.182396,0.0912 -0.911981,0 -0.706785,-0.113997 -0.889181,-0.205195 -0.0684,-0.0684 -1.823961,-0.250795 -1.755562,-0.205196 -2.576345,-0.0912 -0.820782,0.0912 -1.983557,0.182396 -2.051957,0.159597 -5.63148,0.980379 -0.797983,0.227995 -0.93478,0.227995 -0.113998,0 -0.615587,0.319193 -0.501589,0.296394 -1.253973,0.319194 -0.547188,0 -0.729585,-0.0228 -0.159596,-0.0456 -0.592787,-0.341993 -0.569988,-0.387591 -0.661186,-0.387591 -0.0912,0 -0.205195,-0.205196 -0.0912,-0.227995 -0.159597,-0.501589 -0.0456,-0.227995 0.296394,-0.592788 0.273594,-0.250794 0.501589,-0.319193 0.227995,-0.0912 1.025978,-0.273594 5.449084,-1.003178 10.373778,-1.208374 4.195111,-0.159597 4.468705,-0.45599 z m -8.91461,-4.6739004 q 1.504768,-0.2507947 1.732763,-0.3419927 0.250795,-0.091198 0.889181,-0.045599 0.661186,0.045599 0.95758,0.045599 0.319193,0 0.775183,0.4103912 0.433191,0.4103912 0.47879,0.7295844 0.0456,0.2963937 -0.296394,0.6611859 Q 58.690815,7.958591 58.554018,8.1181876 58.257624,8.4601803 57.414042,8.0497891 56.980851,7.8445935 56.160069,7.8901925 55.248088,7.9813906 54.267709,8.1865862 53.31013,8.3917818 53.150533,8.5057794 53.013736,8.6425764 52.876939,8.6197769 52.762942,8.5969774 52.284152,8.3233833 51.850961,8.1181876 51.691364,7.9813906 51.554567,7.821794 51.44057,7.5254003 q -0.205196,-0.4787898 0,-0.6611859 0.273594,-0.1823961 2.963936,-0.6611858 z m 1.595966,-5.63147972 q 0.911981,-0.0911981 1.139976,-0.22799513 0.250795,-0.15959659 0.45599,-0.091198 0.205196,0.0683985 0.980379,0.20519561 0.797983,0.11399757 1.025978,0.27359416 0.341993,0.22799513 0.319194,0.91198058 -0.0228,0.6611859 -0.410392,0.980379 -0.227995,0.2051957 -0.43319,0.2279952 -0.205196,0.0228 -0.683986,-0.1139976 Q 57.642037,2.486708 56.319666,2.623505 54.997294,2.7375026 53.948516,3.1022948 52.990937,3.467087 52.740142,3.467087 q -0.136797,0 -0.592787,-0.3419927 -0.433191,-0.3419927 -0.50159,-0.3419927 -0.296393,0 -0.364792,-0.6611858 l -0.0228,-0.3875918 1.253973,-0.4103912 q 1.823961,-0.52438879 3.488326,-0.75238392 z"
         inkscape:connector-curvature="0" />
      <path
         id="path18"
         style="font-style:normal;font-variant:normal;font-weight:normal;font-stretch:normal;font-size:22.79951286px;font-family:'Ma Shan Zheng';-inkscape-font-specification:'Ma Shan Zheng, Normal';font-variant-ligatures:normal;font-variant-caps:normal;font-variant-numeric:normal;font-feature-settings:normal;text-align:start;writing-mode:lr-tb;text-anchor:start;stroke-width:0.23749493"
         d="m 10.082253,38.395941 q 0.433191,-0.0228 1.322372,-0.0456 0.615587,0 0.775184,0.0228 0.159596,0.0228 0.273594,0.205196 0.205195,0.319193 0.227995,0.797983 0.0456,0.45599 -0.113998,0.775183 l -0.159596,0.364792 -2.143154,0.0228 q -1.4819688,0 -1.89236,0.0456 -0.4103913,0.0456 -0.6839854,0.205196 -0.843582,0.43319 -1.3907703,-0.0912 Q 5.8187445,40.2883 5.9783411,39.558716 6.0239401,39.307921 7.4603094,38.89753 8.8966788,38.487139 10.082253,38.395941 Z M 1.7148322,33.243251 Q 1.5324361,32.718862 1.6008346,32.536466 1.6920327,32.33127 1.7832307,32.33127 q 0.4331908,0 1.1171762,0.569988 0.4103912,0.319193 0.5699878,0.775184 0.1595966,0.43319 0.2507946,1.481968 0.1139976,1.231174 0.4331908,2.485147 0.3191932,1.253973 0.5699878,1.550367 0.2735942,0.250794 0.2735942,0.843582 0,1.253973 -0.5699879,1.550367 -0.2735941,0.182396 -0.3875917,0.182396 -0.3647922,0 -0.9119805,-1.231174 Q 2.7180108,39.741112 2.6724117,38.988728 2.6496122,38.213545 2.5812137,38.122347 2.3988176,37.825953 2.2164215,35.865195 2.0568249,34.360427 1.7148322,33.243251 Z m 5.0614919,-1.299572 q 0.1139975,-0.296394 0.1823961,-0.319194 0.091198,-0.0456 0.3647922,0 0.8207824,0.159597 1.0487776,0.524389 0.2051956,0.296394 0.2051956,0.797983 0,0.501589 -0.1823961,0.775184 -0.2051956,0.250794 -0.2051956,0.569987 0,0.319194 -0.3419927,0.93478 -0.2507947,0.47879 -0.843582,1.208375 -0.5927873,0.706785 -0.7523839,0.706785 -0.1139976,0 -0.6839854,0.501589 -0.5471883,0.47879 -0.7295844,0.47879 -0.1595966,0 -0.1367971,-0.0912 0,-0.0684 0.2507946,-0.455991 0.2735942,-0.43319 0.3647922,-0.661186 0.1139976,-0.250794 0.2279952,-0.410391 0.3191931,-0.524389 0.6839854,-1.778362 0.3875917,-1.276773 0.3875917,-1.84676 0,-0.547189 0.1595966,-0.93478 z m 3.2375309,-0.752384 q 0.569988,-0.296394 0.957579,0 0.410392,0.296393 0.205196,1.595966 -0.159597,0.93478 -0.0684,1.117176 0.113997,0.159596 0.797982,0.136797 0.752384,-0.0684 1.253974,0.159596 0.592787,0.296394 0.729584,0.47879 0.136797,0.182396 0.159597,0.889181 0.0684,0.843582 -0.136797,1.048778 -0.205196,0.205195 -1.048778,0.227995 -1.253973,0.0228 -1.664364,-0.0228 -0.410392,-0.0684 -0.661186,-0.273594 -0.227995,-0.227995 -0.47879,-0.93478 -0.2051957,-0.47879 -0.3647923,-1.481968 -0.1595966,-1.003179 -0.2051956,-1.664365 -0.022799,-0.683985 0.1367971,-0.820782 0.091198,0 0.091198,-0.136797 0,-0.136797 0.2963938,-0.319193 z M 4.6103703,30.119718 q 1.1855747,-0.296394 1.5503669,-0.410392 0.3875917,-0.113997 1.2995722,-0.182396 0.9119806,-0.0684 1.0715772,-0.0228 0.1595965,0.0228 1.9835574,0.136797 1.823961,0.113997 2.690343,0.227995 0.866381,0.113997 2.530746,0.524389 1.892359,0.43319 2.32555,0.569988 0.45599,0.136797 1.025978,0.410391 1.094377,0.547188 1.162775,1.322372 0,0.410391 -0.113997,1.276772 -0.113998,0.866382 -0.227996,1.162775 -0.136797,0.296394 -0.136797,0.683986 0,0.433191 -0.501589,2.029156 -0.47879,1.595966 -0.638386,1.801162 -0.113998,0.113997 -0.113998,0.273594 0,0.136797 -0.387592,0.615587 -0.364792,0.47879 -0.752383,0.797983 -0.433191,0.364792 -0.615587,0.547188 -0.273594,0.319193 -0.661186,0.592788 -0.364792,0.250794 -0.569988,0.250794 -0.273594,0 -0.501589,0.159597 -0.227995,0.159596 -0.569988,-0.0228 -0.341993,-0.182396 -0.341993,-0.250794 0,-0.0912 -0.364792,-0.410392 -0.341993,-0.341992 -0.45599,-0.341992 -0.0912,0 -0.273594,-0.250795 -0.182397,-0.250795 -0.227996,-0.45599 -0.0228,-0.113998 0.182397,-0.250795 0.205195,-0.159596 0.820782,-0.47879 0.866382,-0.43319 1.253973,-0.797983 0.387592,-0.387591 0.797983,-1.231173 0.661186,-1.345172 0.889181,-2.416749 0.136797,-0.820782 0.319193,-1.504767 0.387592,-1.595966 -0.0456,-1.983558 Q 16.80811,32.285671 15.37174,31.87528 13.935371,31.464889 12.772596,31.214094 11.085432,30.9405 9.0790749,30.849302 7.0955172,30.735304 6.1835367,30.9405 4.4279742,31.282493 3.7667884,31.510488 3.128402,31.715683 2.7864093,32.103275 2.6040132,32.33127 2.4444166,32.33127 q -0.2051956,0 -0.3875917,-0.205195 -0.1595966,-0.205196 -0.1595966,-0.47879 0,-0.866382 2.713142,-1.527567 z"
         inkscape:connector-curvature="0" />
      <path
         id="path20"
         style="font-style:normal;font-variant:normal;font-weight:normal;font-stretch:normal;font-size:22.79951286px;font-family:'Ma Shan Zheng';-inkscape-font-specification:'Ma Shan Zheng, Normal';font-variant-ligatures:normal;font-variant-caps:normal;font-variant-numeric:normal;font-feature-settings:normal;text-align:start;writing-mode:lr-tb;text-anchor:start;stroke-width:0.23749493"
         d="m 31.604994,31.236894 q 0.387591,-0.410392 1.071577,0.159596 0.501589,0.387592 0.569987,0.387592 0.0456,0 0.0456,0.205196 0.0228,0.205195 0,0.43319 -0.0228,0.205196 -0.0912,0.250795 -0.0456,0.0912 -0.205195,0.638386 -0.159597,0.524389 -0.159597,0.706785 0,0.0456 0.113998,0.0684 0.113997,0.0228 0.364792,0.0228 0.273594,-0.0228 0.638386,-0.0684 0.387592,-0.0456 0.93478,-0.136797 1.071578,-0.159597 1.595966,-0.0912 0.524389,0.0684 0.866382,0.410391 0.136797,0.113997 0.410391,0.273594 0.296394,0.159597 0.547188,0.364792 0.159597,0.136797 0.182396,0.250795 0.0228,0.0912 -0.0228,0.410391 -0.0684,0.433191 -0.159597,0.47879 -0.0684,0.0456 -0.0684,0.205195 0,0.136798 -0.296394,0.752384 -0.273594,0.592788 -0.273594,0.683986 0,0.0912 -0.159597,0.205195 -0.159596,0.0912 -0.159596,0.364793 0,0.273594 -0.136797,0.387591 -0.136797,0.113998 -0.136797,0.296394 0,0.159597 -0.136797,0.319193 -0.136797,0.136797 -0.136797,0.227995 0,0.0912 -0.159597,0.205196 -0.136797,0.113997 -0.136797,0.341993 0,0.205195 -0.136797,0.319193 -0.136797,0.113997 -0.136797,0.159596 0,0.0912 1.801161,0.205196 1.801162,0.0912 3.055135,0.0912 1.162775,-0.0228 1.41357,0.0228 0.250794,0.0228 0.478789,0.182396 0.250795,0.205195 0.569988,0.820782 0.341993,0.592787 0.341993,0.820783 0,0.205195 -0.433191,0.615586 -0.296393,0.273595 -0.43319,0.341993 -0.136798,0.0456 -0.387592,0.0228 -0.410391,-0.0684 -1.208374,-0.341993 -0.797983,-0.296394 -1.595966,-0.410391 L 38.33085,42.65945 q -1.231174,-0.182396 -3.989915,-0.113998 -2.735941,0.0684 -3.76192,0.296394 -0.45599,0.0912 -1.231173,0.250794 -0.775184,0.136797 -0.95758,0.227995 -0.182396,0.0912 -0.683985,0.0912 -0.501589,0 -1.139976,0.296393 -0.615587,0.296394 -0.683985,0.387592 -0.0684,0.0684 -0.410391,0.182396 -0.341993,0.0912 -0.615587,-0.0228 -0.273594,-0.136798 -0.797983,-0.638387 -0.410391,-0.387592 -0.47879,-0.615587 -0.0684,-0.250794 0.205196,-0.45599 0.683985,-0.592787 3.28313,-1.025978 0.752383,-0.136797 0.820782,-0.182396 0.0912,-0.0684 0.387592,-0.45599 0.296393,-0.387592 0.296393,-0.433191 0,-0.0684 0.273595,-0.410391 0.273594,-0.364793 0.43319,-0.729585 0.182396,-0.364792 0.296394,-0.524389 0.113997,-0.159596 0.752384,-2.30275 0.159596,-0.455991 0.0684,-0.524389 -0.0912,-0.0912 -0.43319,0.113997 -0.775184,0.433191 -1.345172,-0.0456 -0.227995,-0.205195 -0.273594,-0.273594 -0.0228,-0.0912 0.0684,-0.182396 0.159596,-0.182396 1.117176,-0.524389 0.980379,-0.341992 1.117176,-0.45599 0.159597,-0.113997 0.205196,-0.547188 0.296393,-2.325551 0.752384,-2.80434 z m 2.986736,7.045049 q 0.205195,-0.592787 0.524389,-1.664364 0.319193,-1.094377 0.296393,-1.139976 -0.0228,-0.0684 -0.889181,-0.0684 -0.866381,-0.0228 -1.527567,0.0228 -0.319193,0.0228 -0.387592,0.0912 -0.0684,0.0456 -0.0912,0.273594 -0.136797,0.592788 -0.364792,1.322372 -0.227995,0.706785 -0.341993,0.820782 -0.113997,0.159597 -0.113997,0.341993 0,0.182396 -0.296394,0.592787 -0.273594,0.410392 -0.273594,0.547189 0,0.113997 -0.113998,0.182396 -0.205195,0.136797 -0.410391,0.592787 -0.0684,0.113998 -0.296394,0.341993 -0.227995,0.273594 -0.205195,0.364792 0.0228,0.0684 0.341992,0.0228 0.364793,-0.0456 1.755563,-0.113998 1.41357,-0.0684 1.527567,-0.182396 0.136797,-0.136797 0.205196,-0.615587 0.0684,-0.47879 0.296394,-0.91198 0.227995,-0.455991 0.364792,-0.820783 z m -1.071577,-9.80379 q 1.618765,-0.182396 1.937958,-0.250795 0.341993,-0.0912 1.117176,-0.113998 0.50159,0 0.683986,0.0456 0.205195,0.0228 0.47879,0.182397 0.387591,0.250794 0.410391,0.45599 0.0456,0.866381 -0.205196,1.117176 -0.113997,0.136797 -0.250794,0.159597 -0.136798,0 -0.547189,-0.0456 -1.459169,-0.273594 -4.263509,0.273595 -0.501589,0.113997 -0.683985,0.205195 -0.182396,0.0912 -0.410391,0.341993 -0.319194,0.341993 -0.569988,0.433191 -0.250795,0.0912 -0.569988,-0.0228 -0.45599,-0.159596 -1.025978,-0.683985 -0.569988,-0.524389 -0.638386,-0.820783 -0.0456,-0.341992 0.0912,-0.478789 0.159596,-0.136798 0.752384,-0.250795 0.683985,-0.0912 1.139975,-0.205196 0.638387,-0.0912 2.553546,-0.341992 z"
         inkscape:connector-curvature="0" />
      <path
         id="path22"
         style="font-style:normal;font-variant:normal;font-weight:normal;font-stretch:normal;font-size:22.79951286px;font-family:'Ma Shan Zheng';-inkscape-font-specification:'Ma Shan Zheng, Normal';font-variant-ligatures:normal;font-variant-caps:normal;font-variant-numeric:normal;font-feature-settings:normal;text-align:start;writing-mode:lr-tb;text-anchor:start;stroke-width:0.23749493"
         d="m 58.120827,39.011528 q -0.0684,-0.159597 0,-0.227996 0.0684,-0.0912 0.843582,-0.0456 0.547188,0.0228 0.775183,0.136797 0.227996,0.0912 0.866382,0.524389 0.91198,0.592788 1.618765,1.231174 0.729585,0.638386 0.95758,0.683985 0.227995,0.0228 0.250795,0.296394 0.0456,0.250795 0.182396,0.410391 0.136797,0.159597 0.227995,0.47879 0.0912,0.319193 0.227995,0.501589 0.250795,0.296394 0,0.980379 -0.227995,0.661186 -0.661186,0.866382 -0.250795,0.113997 -0.524389,0.0912 -0.273594,-0.0228 -0.273594,-0.136797 0,-0.0912 -0.296394,-0.182396 -0.364792,-0.0912 -1.071577,-0.866382 Q 60.560375,42.955844 60.104385,42.112262 59.899189,41.74747 59.260803,40.972287 58.645216,40.174304 58.44002,39.672714 Z M 52.83134,37.757554 q 0.661186,-0.113997 1.436369,0.683986 0.866382,0.889181 0.820783,1.755562 -0.0456,0.341993 -0.296394,0.729585 -0.250794,0.364792 -0.569988,0.501589 -0.843582,0.364792 -2.211552,1.641565 -0.524389,0.45599 -1.732763,1.253973 -1.208375,0.820783 -1.253974,0.752384 -0.0684,-0.0912 0.205196,-0.364792 0.227995,-0.227995 0.729584,-1.025978 0.524389,-0.797983 0.524389,-0.889181 0,-0.0912 0.159597,-0.227995 0.159596,-0.136798 0.159596,-0.296394 0,-0.182396 0.364793,-0.638386 0.387591,-0.47879 0.387591,-0.569988 0,-0.0912 0.341993,-0.615587 0.706785,-1.025978 0.547188,-1.436369 -0.0684,-0.136798 0.159597,-0.341993 0.182396,-0.136797 0.205196,-0.341993 0.0228,-0.205195 -0.113998,-0.273594 -0.113998,-0.0912 -0.0684,-0.182396 0.0456,-0.0912 0.205197,-0.113998 z m 1.094377,-10.350978 q 0.227995,-0.0228 0.273594,-0.0228 0.0456,-0.0228 0.547188,0.113998 0.569988,0.182396 1.071577,0.45599 0.50159,0.273594 0.547189,0.45599 0.0912,0.205196 0.182396,0.205196 0.0912,0 0.319193,0.775183 0.227995,0.752384 0.159596,1.185575 -0.0684,0.433191 -0.0912,0.775183 -0.0228,0.319193 -0.205195,0.615587 -0.182396,0.273594 -0.182396,0.47879 0,0.159596 0.136797,0.205195 0.205195,0.0228 1.778362,-0.0912 3.100733,-0.227995 3.898716,-0.569987 0.296394,-0.159597 1.367971,0.0456 1.527568,0.250794 1.778362,0.524388 0.433191,0.364793 0.433191,0.911981 0,0.524389 -0.45599,0.91198 -0.296394,0.273595 -0.592788,0.250795 -0.296393,-0.0228 -1.36797,-0.319193 -1.664365,-0.47879 -4.970294,-0.47879 -0.775184,0 -1.778362,0.182396 -1.003179,0.182396 -1.231174,0.341993 -0.113997,0.0912 -0.91198,0.205196 -2.690343,0.45599 -4.081113,1.117176 -0.615587,0.296393 -0.729585,0.296393 -0.0912,0 -0.364792,0.364793 -0.296394,0.341992 -0.592787,0.364792 -0.296394,0 -0.752384,-0.296394 -1.162775,-0.843582 -0.95758,-1.185575 0.113998,-0.182396 0.797983,-0.501589 0.683986,-0.341993 1.231174,-0.45599 0.615587,-0.136797 1.550367,-0.433191 2.029157,-0.615587 2.621944,-0.615587 0.136797,0 0.93478,-0.136797 0.820782,-0.136797 0.91198,-0.159596 0.0912,-0.0456 -0.182396,-0.387592 -0.205195,-0.273594 -0.45599,-0.980379 -0.227995,-0.729585 -0.319193,-1.322372 -0.0912,-0.569988 -0.296394,-1.253973 -0.182396,-0.706785 -0.341993,-0.93478 -0.296393,-0.47879 0.319194,-0.638386 z"
         inkscape:connector-curvature="0" />
      <path
         id="path24"
         style="font-style:normal;font-variant:normal;font-weight:normal;font-stretch:normal;font-size:22.79951286px;font-family:'Ma Shan Zheng';-inkscape-font-specification:'Ma Shan Zheng, Normal';font-variant-ligatures:normal;font-variant-caps:normal;font-variant-numeric:normal;font-feature-settings:normal;text-align:start;writing-mode:lr-tb;text-anchor:start;stroke-width:0.23749493"
         d="m 8.5546861,57.228338 q 0.1595966,-0.387591 0.2507946,-0.387591 0.3419927,0 0.9575795,0.547188 l 0.3875918,0.387592 -0.0228,1.39077 q -0.0228,1.367971 -0.0912,1.86956 -0.068398,0.501589 0.0228,0.547188 0.113997,0.113998 2.941137,-0.501589 1.481968,-0.319193 2.80434,-0.547188 1.322372,-0.227995 1.39077,-0.341993 0.159597,-0.273594 1.390771,-0.227995 1.253973,0.0228 1.595966,0.250795 0.227995,0.205195 0.387591,0.547188 0.182396,0.319193 0.182396,0.592787 0,0.341993 -0.205195,0.729585 -0.182396,0.387591 -0.410391,0.547188 -0.547189,0.364792 -1.345172,0.0228 -0.319193,-0.159596 -0.661186,-0.182396 -0.319193,-0.0456 -1.413569,-0.0456 -1.595966,0.0456 -2.120355,0.136797 -0.501589,0.0912 -1.048778,0.113998 -0.547188,0 -1.573166,0.136797 l -1.504768,0.205196 -0.410391,0.0912 v 1.025978 q 0,1.048777 0.159597,1.778362 0.319193,1.345171 1.025978,1.915159 0.729584,0.547188 2.416748,0.797983 1.139976,0.182396 1.436369,0.0684 0.227995,-0.0684 0.752384,0.0912 0.524389,0.159597 0.797983,0.387592 0.182396,0.205196 0.615587,0.364792 0.547188,0.205196 0.797983,1.003179 0.182396,0.661186 -0.524389,1.481968 -0.433191,0.501589 -0.797983,0.569988 -0.341993,0.0684 -0.957579,-0.296394 Q 14.82455,71.774434 13.661775,71.592037 11.313427,71.20444 9.8314588,69.31208 9.2158719,68.514097 8.8510797,67.191725 8.509087,65.846554 8.509087,64.387385 v -0.752384 l -0.4331907,0.0456 q -0.4103912,0.0912 -0.5015893,0.182397 -0.091198,0.0684 -0.2963937,0.0684 -0.1595965,0 -0.6383863,0.182396 -0.4787898,0.159597 -0.5699878,0.250795 -0.068399,0.0684 -0.2735942,0.0684 -0.2051956,0 -1.2995722,0.387592 -0.7067849,0.227995 -0.9347801,0.364792 -0.2051956,0.113998 -0.3191931,0.319194 -0.1595966,0.319193 -0.2507947,0.387591 -0.091198,0.0684 -0.5243888,0.0912 -0.3191932,0.0228 -0.4787897,-0.0228 -0.1367971,-0.0456 -0.3419927,-0.250795 -0.3419927,-0.319193 -0.3419927,-0.47879 0,-0.182396 -0.1367971,-0.205195 -0.1139976,-0.0456 0.022799,-0.433191 0.1139976,-0.319193 0.4559903,-0.45599 Q 1.9884259,63.977 3.7211888,63.407012 7.4831085,62.198638 7.9390987,62.10744 8.2810914,62.03904 8.3722895,61.947844 8.486287,61.833846 8.3950885,60.785068 8.2810909,59.75909 8.3266895,58.687513 8.3950885,57.615936 8.5546847,57.228344 Z"
         inkscape:connector-curvature="0" />
      <path
         id="path26"
         style="font-style:normal;font-variant:normal;font-weight:normal;font-stretch:normal;font-size:22.79951286px;font-family:'Ma Shan Zheng';-inkscape-font-specification:'Ma Shan Zheng, Normal';font-variant-ligatures:normal;font-variant-caps:normal;font-variant-numeric:normal;font-feature-settings:normal;text-align:start;writing-mode:lr-tb;text-anchor:start;stroke-width:0.23749493"
         d="m 28.253465,61.925038 q 0.547188,-0.273594 1.094377,0.0912 0.341992,0.250795 0.433191,0.47879 0.113997,0.205195 0.0912,0.683985 -0.0228,0.524389 -0.273595,0.889181 -0.227995,0.341993 -0.296393,0.501589 -0.0456,0.159597 -0.136797,0.159597 -0.0912,0 -0.273594,0.410391 -0.159597,0.387592 -0.387592,0.524389 -0.227995,0.136797 -0.592788,0.615587 -0.364792,0.47879 -0.501589,0.47879 -0.113997,0 -0.113997,0.113997 0,0.0912 -0.113998,0.0912 -0.113997,0 -0.319193,0.205196 -0.410391,0.364792 -1.664365,0.957579 l -1.276772,0.615587 q -0.866382,0.410392 -0.911981,0.410392 -0.250794,0 0.706785,-0.820783 0.182396,-0.159596 0.319193,-0.296394 0.729585,-0.592787 1.162775,-1.048777 0.455991,-0.45599 1.094377,-1.253973 0.661186,-0.797983 0.706785,-0.911981 0.0456,-0.136797 0.250795,-0.410391 0.524388,-0.729585 0.729584,-2.051956 0.0456,-0.296394 0.273594,-0.433191 z m 4.263509,-3.077934 q 0.0684,-0.0684 0.410391,0 0.341993,0.0456 0.615587,0.182396 0.250795,0.113997 0.729585,0.615587 0.478789,0.501589 0.615586,0.775183 0.205196,0.501589 1.299573,1.86956 1.094376,1.345171 2.120354,2.37115 0.980379,0.957579 1.299573,1.231173 0.341992,0.273594 1.003178,0.615587 0.889181,0.45599 0.95758,0.524389 0.113997,0.136797 0.501589,0.387592 0.410391,0.227995 0.797983,0.364792 0.615587,0.205195 0.843582,0.319193 0.159596,0.0684 0.47879,0.524389 0.319193,0.433191 0.319193,0.615587 0,0.364792 -0.93478,0.478789 -0.524389,0.0912 -0.661186,0.159597 -0.136797,0.0684 -0.273594,0.113998 -0.273594,0.0912 -0.752384,0.478789 -0.227995,0.182396 -0.45599,0.159597 -0.205196,-0.0456 -0.752384,-0.364792 -0.524389,-0.296394 -0.592788,-0.296394 -0.0228,0 -0.524388,-0.364792 -0.50159,-0.387592 -0.569988,-0.433191 -0.0456,-0.0684 -0.661186,-0.569988 -0.47879,-0.387591 -0.980379,-0.91198 -0.501589,-0.524389 -0.569988,-0.729585 -0.0684,-0.159596 -0.319193,-0.410391 -0.227995,-0.250795 -0.227995,-0.319193 0,-0.0684 -0.159597,-0.227995 -0.250795,-0.227995 -1.025978,-1.43637 -0.752384,-1.208374 -1.185575,-2.074755 -0.547188,-1.117176 -0.547188,-1.185575 0,-0.0684 -0.159597,-0.433191 -0.501589,-1.094376 -0.638386,-1.504767 -0.136797,-0.410392 0,-0.524389 z"
         inkscape:connector-curvature="0" />
      <path
         id="path28"
         style="font-style:normal;font-variant:normal;font-weight:normal;font-stretch:normal;font-size:22.79951286px;font-family:'Ma Shan Zheng';-inkscape-font-specification:'Ma Shan Zheng, Normal';font-variant-ligatures:normal;font-variant-caps:normal;font-variant-numeric:normal;font-feature-settings:normal;text-align:start;writing-mode:lr-tb;text-anchor:start;stroke-width:0.23749493"
         d="m 53.196132,56.772348 q 0.0684,-0.47879 0.182396,-0.843582 0.136797,-0.364792 0.250795,-0.364792 0.159597,0 0.569988,0.341993 0.410391,0.341992 0.524389,0.569987 0.113997,0.205196 0.113997,0.364793 0.0228,0.159596 -0.0456,0.592787 -0.136797,0.683985 -0.296394,1.801161 -0.159596,1.117177 -0.273594,1.573167 -0.0912,0.45599 -0.0456,0.547188 0.0684,0.0228 1.390771,-0.159596 1.322371,-0.205196 1.687164,-0.319194 0.319193,-0.113997 0.524388,0 0.205196,0.113998 0.569988,0.273595 0.273594,0.0912 0.319193,0.182396 0.0456,0.0912 0.0456,0.43319 0,0.341993 -0.0456,0.455991 -0.0456,0.0912 -0.296393,0.227995 -0.319194,0.205195 -0.387592,0.433191 -0.0456,0.205195 -0.136797,0.387591 -0.341993,0.729585 -0.501589,1.459169 -0.0684,0.387592 -0.182397,0.775184 -0.0912,0.43319 -0.0912,1.459168 0.0228,1.025978 0.159597,1.367971 0.113998,0.387592 0.182396,0.615587 0.0684,0.341993 0.47879,0.752384 0.410391,0.410391 0.752384,0.47879 1.048777,0.296393 3.442726,0.250794 2.416749,-0.0684 2.872739,-0.341992 0.182396,-0.136797 0.45599,-0.661186 0.296394,-0.524389 0.296394,-0.729585 0,-0.182396 0.136797,-0.43319 l 0.136797,-0.227996 0.0456,0.296394 q 0.0456,0.273594 0.113998,1.117176 0.0684,0.820783 0.227995,1.162775 0.182396,0.341993 0.0912,0.911981 -0.0684,0.569988 -0.250795,0.820782 -0.182396,0.250795 -0.227995,0.410392 -0.0912,0.205195 -0.729584,0.569987 -0.615587,0.364793 -1.048778,0.47879 -0.592787,0.113998 -1.687164,0 Q 60.560374,73.643988 60.035985,73.52999 59.534396,73.415992 58.668014,72.982802 57.93843,72.61801 57.596437,72.367215 57.277244,72.11642 56.775655,71.569232 56.000471,70.70285 55.544481,69.129684 q -0.136797,-0.410391 -0.182396,-1.641565 -0.0228,-1.231174 0.0684,-1.322372 0.0912,-0.0456 0.0456,-0.113997 -0.0456,-0.0684 0.0912,-0.866382 0.136797,-0.820782 0.250794,-1.139975 0.547189,-1.755563 0.319193,-1.755563 -0.0912,0 -1.937958,0.319193 -0.227995,0.0228 -0.296394,0.136797 -0.0684,0.0912 -0.159596,0.615587 -0.159597,0.752384 -0.319194,1.025978 -0.136797,0.250795 -0.136797,0.387592 0,0.296394 -0.820782,1.89236 -0.592787,1.231173 -0.95758,1.709963 -0.273594,0.364792 -0.273594,0.410391 0,0.113998 -0.592787,0.752384 -0.136797,0.159597 -0.501589,0.433191 -0.661186,0.501589 -1.709964,1.481968 -0.957579,0.911981 -1.664364,1.162776 -0.182396,0.0912 -0.227996,0.0912 -0.0228,-0.0228 0.0912,-0.182397 0.113997,-0.250794 0.387591,-0.524388 0.273594,-0.273594 1.094377,-1.322372 0.843582,-1.071577 1.208374,-1.618765 0.387592,-0.547189 0.843582,-1.527568 0.501589,-1.048777 0.93478,-2.165954 l 0.273594,-0.775183 q 0.136797,-0.364792 0.182396,-0.638386 0.0684,-0.296394 0.136797,-0.47879 0.0456,-0.113998 0.0228,-0.136797 -0.0228,-0.0228 -0.182396,0.0228 -0.341993,0.113998 -1.025978,0.433191 -0.661186,0.319193 -0.911981,0.45599 -0.319193,0.227995 -0.501589,0.227995 -0.182396,0 -0.592787,-0.182396 -0.341993,-0.136797 -0.387592,-0.205195 -0.0456,-0.0684 0.0684,-0.296394 0.0912,-0.319193 0.592788,-0.638386 0.524389,-0.319193 0.569988,-0.319193 0.0456,0 0.569987,-0.227996 0.524389,-0.227995 1.367971,-0.501589 0.569988,-0.182396 0.706785,-0.250795 0.159597,-0.0912 0.227995,-0.319193 0.250795,-0.843582 0.980379,-4.765098 z"
         inkscape:connector-curvature="0" />
    </g>
  </g>
</svg>
